<svg width="251" height="128" viewBox="0 0 251 128" fill="none" xmlns="http://www.w3.org/2000/svg">
<path d="M52.2561 120.764C53.185 120.764 54.0973 121.123 54.7869 121.81C55.4765 122.5 55.8351 123.409 55.8351 124.336C55.8351 125.263 55.4765 126.174 54.7869 126.862C54.0973 127.552 53.185 127.91 52.2561 127.91C51.3271 127.91 50.4148 127.552 49.7253 126.862C49.0355 126.174 48.6768 125.263 48.6768 124.336C48.6768 123.409 49.0355 122.5 49.7253 121.81C50.4148 121.123 51.3271 120.764 52.2561 120.764Z" fill="#263576"/>
<path d="M39.0127 107.902C40.0465 107.902 41.0462 108.324 41.7966 109.107C42.5471 109.888 42.95 110.933 42.95 112.012C42.95 113.091 42.5471 114.133 41.7966 114.917C41.0462 115.7 40.0465 116.12 39.0127 116.12C37.9789 116.12 36.9792 115.7 36.2288 114.917C35.4786 114.133 35.0758 113.091 35.0758 112.012C35.0758 110.933 35.4786 109.888 36.2288 109.107C36.9792 108.324 37.9789 107.902 39.0127 107.902Z" fill="#263576"/>
<path d="M8.4679 90.7685C7.62963 89.8645 7.1583 88.6446 7.1583 87.356C7.1583 86.0674 7.62963 84.8502 8.4679 83.9462C9.30611 83.0423 10.4373 82.5339 11.6322 82.5339C12.8272 82.5339 13.9561 83.0423 14.7941 83.9462C15.6323 84.8502 16.1062 86.0674 16.1062 87.356C16.1062 88.6446 15.6323 89.8645 14.7941 90.7685C13.9561 91.6725 12.8272 92.1808 11.6322 92.1808C10.4373 92.1808 9.30611 91.6725 8.4679 90.7685Z" fill="#263576"/>
<path d="M8.86022 67.3629C9.82013 68.3872 10.3796 69.7813 10.3796 71.2795C10.3796 72.7776 9.82013 74.1717 8.86022 75.1961C7.90025 76.2176 6.59384 76.8175 5.18986 76.8175C3.78594 76.8175 2.47947 76.2176 1.51956 75.1961C0.559649 74.1717 7.70185e-05 72.7776 7.70185e-05 71.2795C7.70185e-05 69.7813 0.559649 68.3872 1.51956 67.3629C2.47947 66.3386 3.78594 65.7415 5.18986 65.7415C6.59384 65.7415 7.90025 66.3386 8.86022 67.3629Z" fill="#263576"/>
<path d="M11.9217 55.85C10.8697 56.9005 9.43233 57.5239 7.87284 57.5239C6.31596 57.5239 4.8787 56.9005 3.82395 55.85C2.77188 54.7969 2.14752 53.3617 2.14752 51.8073C2.14752 50.2527 2.77188 48.815 3.82395 47.7645C4.8787 46.7113 6.31596 46.0906 7.87284 46.0906C9.43233 46.0906 10.8697 46.7113 11.9217 47.7645C12.9765 48.815 13.6008 50.2527 13.6008 51.8073C13.6008 53.3617 12.9765 54.7969 11.9217 55.85Z" fill="#263576"/>
<path d="M19.1472 41.803C17.4366 41.803 15.8656 41.1145 14.7188 39.9697C13.572 38.825 12.8851 37.2567 12.8851 35.5491C12.8851 33.8415 13.572 32.2732 14.7188 31.1284C15.8656 29.9836 17.4366 29.2979 19.1472 29.2979C20.8578 29.2979 22.4288 29.9836 23.5756 31.1284C24.7224 32.2732 25.4121 33.8415 25.4121 35.5491C25.4121 37.2567 24.7224 38.825 23.5756 39.9697C22.4288 41.1145 20.8578 41.803 19.1472 41.803Z" fill="#263576"/>
<path d="M50.824 16.0783C48.8537 16.0783 47.0622 15.321 45.7624 14.0908C44.4626 12.858 43.6658 11.1576 43.6658 9.28977C43.6658 7.42191 44.4626 5.72144 45.7624 4.49132C47.0622 3.25845 48.8537 2.50122 50.824 2.50122C52.7945 2.50122 54.5858 3.25845 55.8858 4.49132C57.1856 5.72144 57.9824 7.42191 57.9824 9.28977C57.9824 11.1576 57.1856 12.858 55.8858 14.0908C54.5858 15.321 52.7945 16.0783 50.824 16.0783Z" fill="#263576"/>
<path d="M36.5074 15.3638C38.2744 15.3638 39.8885 16.0953 41.0627 17.2991C42.2372 18.5029 42.95 20.1598 42.95 21.9723C42.95 23.7875 42.2372 25.4417 41.0627 26.6482C39.8885 27.8519 38.2744 28.5835 36.5074 28.5835C34.7404 28.5835 33.1262 27.8519 31.9519 26.6482C30.7777 25.4417 30.065 23.7875 30.065 21.9723C30.065 20.1598 30.7777 18.5029 31.9519 17.2991C33.1262 16.0953 34.7404 15.3638 36.5074 15.3638Z" fill="#263576"/>
<path d="M6.26355 7.5031C5.28803 7.5031 4.32908 7.12702 3.60573 6.40519C2.88237 5.68057 2.50549 4.72643 2.50549 3.75019C2.50549 2.77667 2.88237 1.82253 3.60573 1.09791C4.32908 0.376082 5.28803 0 6.26355 0C7.23913 0 8.19535 0.376082 8.92143 1.09791C9.64479 1.82253 10.0217 2.77667 10.0217 3.75019C10.0217 4.72643 9.64479 5.68057 8.92143 6.40519C8.19535 7.12702 7.23913 7.5031 6.26355 7.5031Z" fill="#E62530"/>
<path d="M19.3276 20.0082C18.2934 20.0082 17.294 19.5887 16.543 18.8051C15.7923 18.0214 15.3904 16.9783 15.3904 15.8994C15.3904 14.8204 15.7923 13.7773 16.543 12.9937C17.294 12.21 18.2934 11.7905 19.3276 11.7905C20.3612 11.7905 21.3607 12.21 22.1116 12.9937C22.8626 13.7773 23.2645 14.8204 23.2645 15.8994C23.2645 16.9783 22.8626 18.0214 22.1116 18.8051C21.3607 19.5887 20.3612 20.0082 19.3276 20.0082Z" fill="#E62530"/>
<path d="M50.1248 37.4985C51.0297 38.4024 51.5399 39.6196 51.5399 40.911C51.5399 42.1996 51.0297 43.4168 50.1248 44.3207C49.2197 45.2247 47.9992 45.733 46.7082 45.733C45.4172 45.733 44.1964 45.2247 43.2913 44.3207C42.3864 43.4168 41.8762 42.1996 41.8762 40.911C41.8762 39.6196 42.3864 38.4024 43.2913 37.4985C44.1964 36.5945 45.4172 36.0862 46.7082 36.0862C47.9992 36.0862 49.2197 36.5945 50.1248 37.4985Z" fill="#E62530"/>
<path d="M49.5331 60.5993C48.5404 59.608 47.9608 58.2589 47.9608 56.8091C47.9608 55.3592 48.5404 54.0101 49.5331 53.0188C50.5258 52.0275 51.8767 51.4497 53.3295 51.4497C54.7821 51.4497 56.1332 52.0275 57.1257 53.0188C58.1184 54.0101 58.6982 55.3592 58.6982 56.8091C58.6982 58.2589 58.1184 59.608 57.1257 60.5993C56.1332 61.5906 54.7821 62.1684 53.3295 62.1684C51.8767 62.1684 50.5258 61.5906 49.5331 60.5993Z" fill="#E62530"/>
<path d="M46.7223 72.0601C47.7424 71.0096 49.1362 70.3862 50.6451 70.3862C52.1539 70.3862 53.5475 71.0096 54.5678 72.0601C55.5882 73.1106 56.1927 74.5484 56.1927 76.1028C56.1927 77.6574 55.5882 79.0951 54.5678 80.1456C53.5475 81.1961 52.1539 81.8195 50.6451 81.8195C49.1362 81.8195 47.7424 81.1961 46.7223 80.1456C45.702 79.0951 45.0974 77.6574 45.0974 76.1028C45.0974 74.5484 45.702 73.1106 46.7223 72.0601Z" fill="#E62530"/>
<path d="M39.1918 86.8215C40.9029 86.8215 42.474 87.4904 43.6208 88.6024C44.7673 89.7119 45.4553 91.238 45.4553 92.8968C45.4553 94.5556 44.7673 96.0791 43.6208 97.1911C42.474 98.3032 40.9029 98.9694 39.1918 98.9694C37.4806 98.9694 35.9093 98.3032 34.7628 97.1911C33.6163 96.0791 32.9283 94.5556 32.9283 92.8968C32.9283 91.238 33.6163 89.7119 34.7628 88.6024C35.9093 87.4904 37.4806 86.8215 39.1918 86.8215Z" fill="#E62530"/>
<path d="M7.33863 111.832C9.25938 111.832 11.0052 112.606 12.273 113.872C13.5407 115.137 14.3167 116.882 14.3167 118.799C14.3167 120.716 13.5407 122.458 12.273 123.724C11.0052 124.989 9.25938 125.766 7.33863 125.766C5.4152 125.766 3.66934 124.989 2.40156 123.724C1.13385 122.458 0.35793 120.716 0.35793 118.799C0.35793 116.882 1.13385 115.137 2.40156 113.872C3.66934 112.606 5.4152 111.832 7.33863 111.832Z" fill="#E62530"/>
<path d="M22.907 98.9695C24.7716 98.9695 26.4761 99.7208 27.7155 100.957C28.9552 102.196 29.7072 103.898 29.7072 105.759C29.7072 107.621 28.9552 109.323 27.7155 110.559C26.4761 111.798 24.7716 112.547 22.907 112.547C21.0426 112.547 19.3383 111.798 18.0997 110.559C16.8586 109.323 16.1063 107.621 16.1063 105.759C16.1063 103.898 16.8586 102.196 18.0997 100.957C19.3383 99.7208 21.0426 98.9695 22.907 98.9695Z" fill="#E62530"/>
<path d="M236.425 43.007C242.562 38.8013 246.014 32.6838 246.014 24.6547C246.014 8.59632 235.658 0.184814 215.33 0.184814H171.604V94.2408H216.864C232.206 94.2408 250.234 86.9763 250.234 66.3298C250.234 54.8596 245.631 47.2128 236.425 43.007ZM214.179 74.7413H195.001V19.3019H211.494C221.85 19.3019 223.001 23.5076 223.001 27.7134C223.001 33.4485 219.549 36.5072 213.028 36.5072H207.275L199.22 53.7126H214.562C223.001 53.7126 226.453 57.1537 226.453 64.4181C227.22 69.0062 225.302 74.7413 214.179 74.7413Z" fill="#E62530"/>
<path d="M163.469 85.0645C157.506 88.5056 150.35 90.7997 143.194 91.9467C136.038 93.0937 128.882 94.2408 121.726 94.2408C114.57 94.2408 107.414 93.0937 100.258 90.7997C94.2948 88.5056 88.3314 85.0646 83.5608 81.6235C78.7901 77.0354 75.2121 72.4473 72.8268 66.7122C70.4414 60.9771 69.2488 54.0949 69.2488 47.2128C69.2488 40.3306 70.4414 33.4485 72.8268 27.7134C75.2121 21.9783 78.7901 17.3902 83.5608 12.8021C88.3314 8.21398 94.2948 5.91993 100.258 3.62589C108.607 1.33184 115.763 0.184814 122.919 0.184814C131.267 0.184814 138.423 1.33184 144.387 2.47886C150.35 4.77291 156.313 7.06696 161.084 11.655L146.772 26.5664C144.387 24.2723 140.809 21.9783 137.231 20.8312C133.653 19.6842 128.882 18.5372 122.919 18.5372C118.148 18.5372 114.57 19.6842 110.992 20.8312C107.414 21.9783 103.836 24.2723 101.451 26.5664C99.0654 28.8604 96.6801 32.3015 95.4874 35.7425C94.2948 39.1836 93.1021 42.6247 93.1021 47.2128C93.1021 51.8009 94.2948 55.2419 95.4874 58.683C96.6801 62.1241 99.0654 65.5652 101.451 67.8592C103.836 70.1532 107.414 72.4473 110.992 73.5943C114.57 74.7413 119.341 75.8884 122.919 75.8884C127.689 75.8884 131.267 75.8884 134.845 74.7413C138.423 73.5943 140.809 72.4473 143.194 71.3003V56.389H125.304V38.0366H163.469V85.0645Z" fill="#263576"/>
<path fill-rule="evenodd" clip-rule="evenodd" d="M76.7161 104.64V127.462H93.2781C94.8876 127.462 96.2767 127.371 97.4312 127.179L97.435 127.179L97.4388 127.178C98.5961 126.978 99.6111 126.667 100.448 126.217C101.287 125.772 101.981 125.187 102.478 124.446C102.951 123.751 103.279 122.957 103.475 122.082C103.673 121.23 103.783 120.295 103.811 119.284C103.847 118.306 103.865 117.228 103.865 116.051C103.865 114.874 103.847 113.8 103.811 112.831C103.783 111.813 103.674 110.878 103.475 110.034C103.279 109.152 102.952 108.352 102.478 107.656C101.981 106.915 101.287 106.33 100.448 105.885C99.6089 105.434 98.5923 105.128 97.435 104.937C96.2777 104.735 94.8871 104.64 93.2781 104.64H76.7161ZM98.3677 122.183C98.2426 122.348 98.0405 122.512 97.6971 122.646C97.3198 122.783 96.7866 122.893 96.0676 122.95C95.3217 123.01 94.3939 123.04 93.2781 123.04H81.5744V109.062H93.2781C94.4033 109.062 95.3305 109.092 96.0665 109.151L96.0676 109.152C96.7878 109.209 97.3174 109.323 97.689 109.466L97.6972 109.47L97.7055 109.473C98.0471 109.598 98.2452 109.757 98.3677 109.919C98.5126 110.111 98.6605 110.423 98.7627 110.919L98.7646 110.928L98.7668 110.938C98.8786 111.436 98.9502 112.095 98.9671 112.931L98.9673 112.937L98.9675 112.943C98.9938 113.802 99.0071 114.837 99.0071 116.051C99.0071 117.265 98.9938 118.305 98.9674 119.172L98.9673 119.178L98.9672 119.184C98.9503 120.01 98.8788 120.671 98.766 121.181L98.7647 121.187L98.7633 121.193C98.6619 121.678 98.5147 121.989 98.3677 122.183Z" fill="#E62530"/>
<path d="M73.8583 104.64H69V127.462H73.8583V104.64Z" fill="#E62530"/>
<path fill-rule="evenodd" clip-rule="evenodd" d="M225.994 105.021H220.441L233.047 118.07V127.082H237.143V118.07L249.748 105.021H244.195L235.095 114.724L225.994 105.021Z" fill="#263576"/>
<path d="M219.567 108.682V105.021H194.895V108.682H205.183V127.082H209.279V108.682H219.567Z" fill="#263576"/>
<path d="M192.132 105.021H188.036V127.082H192.132V105.021Z" fill="#263576"/>
<path d="M185.273 108.682V105.021H160.601V108.682H170.889V127.082H174.985V108.682H185.273Z" fill="#263576"/>
<path d="M130.352 127.082H134.449V109.66L153.335 127.082H157.825V105.021H153.728V121.976L135.934 105.021H130.352V127.082Z" fill="#263576"/>
<path d="M106.347 105.021V127.082H128.447V123.421H110.443V117.668H127.59V114.007H110.443V108.682H128.447V105.021H106.347Z" fill="#263576"/>
</svg>
